<?xml version="1.0" encoding="utf-8"?>
<!-- Generator: Adobe Illustrator 24.3.0, SVG Export Plug-In . SVG Version: 6.00 Build 0)  -->
<svg version="1.1" id="Layer_1" xmlns="http://www.w3.org/2000/svg" xmlns:xlink="http://www.w3.org/1999/xlink" x="0px" y="0px"
	 viewBox="0 0 512 512" style="enable-background:new 0 0 512 512;" xml:space="preserve">
<g>
	<path fill="#fff" d="M486.4,0h-384C74.12,0,51.2,22.95,51.2,51.2V128H0v51.2h51.2v51.2H0v51.2h51.2v51.2H0V384h51.2v76.8
		c0,28.28,22.92,51.2,51.2,51.2h384c14.15,0,25.6-11.45,25.6-25.6V25.6C512,11.45,500.55,0,486.4,0z M281.6,76.78
		c42.17,0,76.8,34.57,76.8,76.8c0,42.2-34.62,76.82-76.8,76.82s-76.8-34.62-76.8-76.82C204.8,111.35,239.43,76.78,281.6,76.78z
		 M435.2,409.6H128v-19.2c0-56.8,69.23-115.2,153.6-115.2c84.35,0,153.6,58.4,153.6,115.2V409.6z"/>
</g>
</svg>
